<?xml version="1.0" standalone="no"?>
<!DOCTYPE svg PUBLIC "-//W3C//DTD SVG 20010904//EN"
 "http://www.w3.org/TR/2001/REC-SVG-20010904/DTD/svg10.dtd">
<svg version="1.0" xmlns="http://www.w3.org/2000/svg"
 width="265.000000pt" height="265.000000pt" viewBox="0 0 265.000000 265.000000"
 preserveAspectRatio="xMidYMid meet">

<g transform="translate(0.000000,265.000000) scale(0.100000,-0.100000)"
fill="#000000" stroke="none">
<path d="M0 1325 l0 -1325 1325 0 1325 0 0 1325 0 1325 -1325 0 -1325 0 0
-1325z m1896 598 l565 -338 -155 -3 -156 -3 0 -594 0 -595 -825 0 -825 0 0
600 0 599 -150 3 -151 3 558 332 c307 182 561 332 566 332 4 1 262 -151 573
-336z"/>
<path d="M1521 1715 c-69 -19 -108 -44 -158 -98 -58 -63 -86 -144 -80 -232 2
-38 6 -77 8 -85 3 -9 -20 -27 -66 -52 -80 -43 -96 -45 -112 -19 -20 32 -111
71 -167 71 -138 0 -250 -125 -232 -257 25 -185 230 -264 381 -148 l32 24 90
-60 89 -59 -9 -49 c-9 -43 -8 -54 14 -97 27 -55 60 -82 112 -94 77 -17 147 17
185 90 47 94 16 172 -95 235 -2 1 8 43 38 156 9 36 9 36 74 41 41 4 85 15 120
32 237 117 238 461 2 575 -77 37 -153 46 -226 26z m-60 -603 l47 -23 -25 -98
c-25 -98 -26 -99 -58 -105 -18 -4 -44 -16 -59 -27 l-25 -20 -95 63 c-72 47
-94 67 -88 78 4 8 7 53 8 99 l1 84 74 37 74 38 50 -52 c27 -29 71 -62 96 -74z"/>
</g>
</svg>
