<?xml version="1.0" standalone="no"?>
<!DOCTYPE svg PUBLIC "-//W3C//DTD SVG 20010904//EN"
 "http://www.w3.org/TR/2001/REC-SVG-20010904/DTD/svg10.dtd">
<svg version="1.0" xmlns="http://www.w3.org/2000/svg"
 width="265.000000pt" height="265.000000pt" viewBox="0 0 265.000000 265.000000"
 preserveAspectRatio="xMidYMid meet">

<g transform="translate(0.000000,265.000000) scale(0.100000,-0.100000)"
fill="#000000" stroke="none">
<path d="M765 1927 l-559 -332 149 -5 150 -5 3 -597 2 -598 815 0 815 0 2 597
3 598 146 5 147 5 -517 308 c-284 169 -534 318 -556 331 l-40 24 -560 -331z
m967 -224 c65 -30 133 -95 165 -162 24 -48 28 -68 28 -141 -1 -78 -4 -91 -35
-149 -57 -106 -160 -171 -279 -173 l-50 -1 -23 -95 c-18 -74 -20 -96 -10 -100
27 -9 75 -57 88 -89 36 -84 0 -184 -79 -222 -77 -37 -147 -23 -204 42 -36 41
-48 89 -39 147 l6 39 -75 51 c-41 28 -82 53 -90 56 -8 3 -29 -6 -46 -20 -41
-34 -127 -59 -176 -50 -190 34 -270 257 -140 392 48 51 101 74 166 74 67 0
114 -18 163 -61 l36 -32 76 38 77 38 -8 45 c-28 178 52 321 215 383 61 23 169
18 234 -10z"/>
<path d="M1234 1192 c-70 -36 -71 -37 -62 -67 9 -29 5 -98 -7 -141 -5 -17 8
-30 81 -78 l87 -58 30 17 c17 10 44 21 61 24 28 6 31 11 53 96 12 50 23 93 23
97 0 4 -22 19 -48 32 -26 13 -67 45 -90 70 -23 25 -46 46 -50 46 -4 -1 -39
-18 -78 -38z"/>
</g>
</svg>
