<?xml version="1.0" standalone="no"?>
<!DOCTYPE svg PUBLIC "-//W3C//DTD SVG 20010904//EN"
 "http://www.w3.org/TR/2001/REC-SVG-20010904/DTD/svg10.dtd">
<svg version="1.0" xmlns="http://www.w3.org/2000/svg"
 width="265.000000pt" height="265.000000pt" viewBox="0 0 265.000000 265.000000"
 preserveAspectRatio="xMidYMid meet">

<g transform="translate(0.000000,265.000000) scale(0.100000,-0.100000)"
fill="#000000" stroke="none">
<path d="M672 2031 l-653 -386 175 -3 176 -2 0 -700 0 -700 955 0 955 0 0 695
0 695 180 2 181 3 -647 385 c-356 212 -652 388 -658 391 -6 4 -305 -167 -664
-380z m1141 -269 c77 -38 148 -111 185 -190 23 -49 27 -70 27 -152 0 -82 -4
-103 -27 -152 -61 -130 -185 -217 -322 -226 l-74 -5 -26 -103 c-30 -118 -30
-124 -14 -124 22 0 79 -52 99 -92 32 -62 24 -154 -17 -205 -67 -83 -167 -106
-255 -60 -80 42 -122 146 -97 237 6 23 -1 30 -97 93 l-104 69 -38 -31 c-181
-145 -446 -17 -445 216 0 150 119 267 272 266 77 0 123 -17 180 -69 l42 -38
93 47 94 46 -10 33 c-14 49 -11 158 6 213 19 66 78 148 134 189 114 84 270 99
394 38z"/>
<path d="M1225 1178 l-81 -40 1 -92 c0 -50 -4 -101 -8 -113 -7 -20 3 -29 98
-93 l106 -71 26 21 c15 11 45 25 69 31 l42 11 27 109 c15 61 26 111 24 113 -2
2 -27 15 -55 29 -47 24 -144 110 -144 129 0 15 -24 7 -105 -34z"/>
</g>
</svg>
