<?xml version="1.0" standalone="no"?>
<!DOCTYPE svg PUBLIC "-//W3C//DTD SVG 20010904//EN"
 "http://www.w3.org/TR/2001/REC-SVG-20010904/DTD/svg10.dtd">
<svg version="1.0" xmlns="http://www.w3.org/2000/svg"
 width="64.000000pt" height="64.000000pt" viewBox="0 0 64.000000 64.000000"
 preserveAspectRatio="xMidYMid meet">

<g transform="translate(0.000000,64.000000) scale(0.100000,-0.100000)"
fill="#000000" stroke="none">
<path d="M377 578 c-49 -29 -82 -94 -74 -149 5 -38 3 -40 -32 -58 -36 -19 -37
-19 -61 -1 -35 27 -67 33 -106 20 -48 -16 -74 -53 -74 -107 0 -89 89 -134 171
-86 24 14 28 14 67 -12 35 -23 42 -33 42 -60 0 -77 82 -113 135 -60 33 32 32
70 -4 105 -27 28 -28 31 -18 74 9 40 14 46 36 46 36 0 103 36 126 67 29 40 32
129 6 171 -45 71 -139 93 -214 50z m22 -279 c9 -3 11 -16 6 -42 -14 -73 -61
-93 -122 -53 -38 26 -40 29 -38 78 2 47 4 52 36 68 l34 18 36 -33 c20 -18 42
-34 48 -36z"/>
</g>
</svg>
