<?xml version="1.0" standalone="no"?>
<!DOCTYPE svg PUBLIC "-//W3C//DTD SVG 20010904//EN"
 "http://www.w3.org/TR/2001/REC-SVG-20010904/DTD/svg10.dtd">
<svg version="1.0" xmlns="http://www.w3.org/2000/svg"
 width="265.000000pt" height="265.000000pt" viewBox="0 0 265.000000 265.000000"
 preserveAspectRatio="xMidYMid meet">

<g transform="translate(0.000000,265.000000) scale(0.100000,-0.100000)"
fill="#000000" stroke="none">
<path d="M1176 2640 c-576 -73 -1027 -487 -1147 -1053 -31 -144 -31 -380 0
-524 111 -525 509 -923 1034 -1034 144 -31 380 -31 524 0 528 112 922 506
1034 1034 31 144 31 380 0 524 -112 527 -511 927 -1031 1033 -114 23 -312 33
-414 20z m573 -820 l410 -245 -114 -3 -115 -3 0 -439 0 -440 -605 0 -605 0 0
440 0 439 -117 3 -118 3 415 247 c228 136 420 246 426 245 7 -1 197 -112 423
-247z"/>
<path d="M1420 1647 c-89 -47 -138 -143 -126 -247 l6 -56 -56 -27 c-56 -28
-57 -28 -78 -9 -79 73 -183 68 -253 -11 -93 -106 -12 -277 132 -277 36 0 86
20 115 46 14 12 25 7 83 -32 65 -43 67 -46 62 -78 -14 -70 49 -146 120 -146
72 0 134 74 121 145 -7 35 -46 86 -73 96 -9 3 -8 22 6 74 l17 70 56 6 c178 19
273 212 178 362 -46 72 -98 101 -189 105 -65 3 -83 0 -121 -21z m-76 -362 c9
-13 37 -36 63 -51 27 -15 49 -28 51 -29 1 -1 -5 -34 -15 -74 -15 -62 -20 -72
-43 -78 -14 -3 -35 -11 -46 -19 -19 -11 -28 -8 -85 30 l-63 43 -1 75 0 76 50
26 c63 31 69 31 89 1z"/>
</g>
</svg>
